#tb 0: 1/14
#media_type 0: video
#codec_id 0: rawvideo
#dimensions 0: 320x200
#sar 0: 0/1
0,          0,          0,        1,   192000, 0x00000000
0,          1,          1,        1,   192000, 0x03567eeb
0,          2,          2,        1,   192000, 0xe73db12c
0,          3,          3,        1,   192000, 0x7cefe740
0,          4,          4,        1,   192000, 0xb769f827
0,          5,          5,        1,   192000, 0x71669dea
0,          6,          6,        1,   192000, 0xc203b934
0,          7,          7,        1,   192000, 0x30671ee2
0,          8,          8,        1,   192000, 0xaea33a1b
0,          9,          9,        1,   192000, 0x50f220c3
0,         10,         10,        1,   192000, 0x1ddd090f
0,         11,         11,        1,   192000, 0x17ac22a4
0,         12,         12,        1,   192000, 0x19f9f412
0,         13,         13,        1,   192000, 0xa2df0e55
0,         14,         14,        1,   192000, 0x5abcd663
0,         15,         15,        1,   192000, 0x5b09b38d
0,         16,         16,        1,   192000, 0x894d1f43
0,         17,         17,        1,   192000, 0xbc95caaf
0,         18,         18,        1,   192000, 0xeaca27fc
0,         19,         19,        1,   192000, 0x49c5ccb4
0,         20,         20,        1,   192000, 0x8b3e78b0
0,         21,         21,        1,   192000, 0x1645d3ae
0,         22,         22,        1,   192000, 0x4407da0f
0,         23,         23,        1,   192000, 0x7d0826ac
0,         24,         24,        1,   192000, 0xc17ec1b8
0,         25,         25,        1,   192000, 0x4a82520d
0,         26,         26,        1,   192000, 0xa89f0e2f
0,         27,         27,        1,   192000, 0xd58b537a
0,         28,         28,        1,   192000, 0x7123dafe
0,         29,         29,        1,   192000, 0x15d1d065
0,         30,         30,        1,   192000, 0xa86873f6
0,         31,         31,        1,   192000, 0x32704a91
0,         32,         32,        1,   192000, 0xbf2b63d7
0,         33,         33,        1,   192000, 0xb98e0126
0,         34,         34,        1,   192000, 0x412a03ee
0,         35,         35,        1,   192000, 0x601ad161
0,         36,         36,        1,   192000, 0x01ead407
0,         37,         37,        1,   192000, 0x75a7bbe5
0,         38,         38,        1,   192000, 0x155ea759
0,         39,         39,        1,   192000, 0xe3a0a6aa
0,         40,         40,        1,   192000, 0x2b5a5770
0,         41,         41,        1,   192000, 0x00000000
